<svg width="15" height="11" fill="none" xmlns="http://www.w3.org/2000/svg"><path d="M14.674.318a.57.57 0 0 0-.21-.043.492.492 0 0 0-.377.163l-3.373 3.455V2.475c0-.682-.236-1.265-.707-1.749A2.292 2.292 0 0 0 8.303 0H2.411C1.747 0 1.179.242.707.726A2.416 2.416 0 0 0 0 2.475v6.05c0 .682.236 1.265.707 1.749.472.484 1.04.726 1.704.726h5.892c.665 0 1.232-.242 1.704-.726a2.416 2.416 0 0 0 .707-1.749V7.098l3.374 3.464c.1.109.226.163.376.163a.57.57 0 0 0 .21-.043.514.514 0 0 0 .326-.507V.825c0-.24-.109-.41-.326-.507Z" fill="#fff"/></svg>