<svg width="10" height="19" fill="none" xmlns="http://www.w3.org/2000/svg"><path d="M9.688 9.172a.32.32 0 0 0-.313.328v1.966c0 2.528-1.963 4.586-4.375 4.586-2.413 0-4.375-2.058-4.375-4.586V9.5a.32.32 0 0 0-.313-.328A.32.32 0 0 0 0 9.5v1.966c0 2.779 2.076 5.054 4.688 5.224v1.655H3.125a.32.32 0 0 0-.313.327c0 .181.14.328.313.328h3.75a.32.32 0 0 0 .313-.328.32.32 0 0 0-.313-.327H5.312V16.69C7.925 16.52 10 14.245 10 11.465V9.5a.32.32 0 0 0-.313-.328Z" fill="#4353FF"/><path d="M5 15.069c1.895 0 3.438-1.617 3.438-3.604V3.604C8.438 1.617 6.894 0 5 0 3.105 0 1.562 1.617 1.562 3.603v7.862c0 1.987 1.543 3.604 3.438 3.604ZM2.187 3.603C2.188 1.978 3.45.655 5 .655c1.55 0 2.813 1.323 2.813 2.948v7.862c0 1.626-1.262 2.949-2.813 2.949-1.55 0-2.813-1.323-2.813-2.948V3.603Z" fill="#4353FF"/></svg>