<svg width="24" height="19" fill="none" xmlns="http://www.w3.org/2000/svg"><path d="M23.586 0H.414A.413.413 0 0 0 0 .413v18.174c0 .228.185.413.414.413h23.172a.413.413 0 0 0 .414-.413V.413A.413.413 0 0 0 23.586 0Zm-.414 18.174H.828V.826h22.344v17.348Z" fill="#4353FF"/><path d="M6.62 9.144a2.305 2.305 0 0 0 2.305-2.3 2.305 2.305 0 0 0-4.609 0c0 1.268 1.034 2.3 2.305 2.3Zm0-3.774c.815 0 1.478.661 1.478 1.474a1.477 1.477 0 0 1-2.954 0c0-.812.662-1.474 1.477-1.474ZM2.896 16.522a.413.413 0 0 0 .274-.103l6.75-5.932 4.263 4.255a.414.414 0 0 0 .585-.585l-1.99-1.985 3.8-4.153 4.66 4.264c.168.154.43.143.584-.026a.412.412 0 0 0-.026-.583L16.831 7.13a.415.415 0 0 0-.585.026l-4.053 4.431-1.963-1.959a.415.415 0 0 0-.566-.018l-7.041 6.188a.413.413 0 0 0 .273.724Z" fill="#4353FF"/></svg>