<svg width="20" height="20" fill="none" xmlns="http://www.w3.org/2000/svg"><path d="M18.97 7.778H17.1a.698.698 0 0 1-.664-.444.699.699 0 0 1 .155-.783l1.323-1.322c.194-.195.302-.453.302-.728 0-.275-.108-.534-.302-.729l-1.686-1.686a1.055 1.055 0 0 0-1.457 0l-1.323 1.323a.699.699 0 0 1-.782.155.698.698 0 0 1-.444-.663V1.03A1.03 1.03 0 0 0 11.192 0H8.808a1.03 1.03 0 0 0-1.03 1.03V2.9c0 .301-.165.55-.443.664a.698.698 0 0 1-.783-.155L5.23 2.086a1.054 1.054 0 0 0-1.457 0L2.086 3.772a1.024 1.024 0 0 0-.302.729c0 .275.107.533.302.728L3.409 6.55a.7.7 0 0 1 .155.783.698.698 0 0 1-.663.444H1.03A1.03 1.03 0 0 0 0 8.808v2.384c0 .568.462 1.03 1.03 1.03H2.9c.301 0 .55.166.664.444a.699.699 0 0 1-.155.782l-1.323 1.323a1.023 1.023 0 0 0-.302.728c0 .275.107.534.302.729l1.686 1.686c.39.39 1.067.39 1.457 0l1.322-1.323a.699.699 0 0 1 .783-.155.698.698 0 0 1 .444.663v1.871c0 .568.462 1.03 1.03 1.03h2.384a1.03 1.03 0 0 0 1.03-1.03V17.1c0-.302.165-.55.443-.664a.698.698 0 0 1 .783.155l1.323 1.323c.39.39 1.067.389 1.456 0l1.687-1.686c.194-.195.301-.454.301-.729 0-.275-.107-.533-.301-.728l-1.323-1.323a.7.7 0 0 1-.156-.782.698.698 0 0 1 .664-.444h1.871a1.03 1.03 0 0 0 1.03-1.03V8.808a1.03 1.03 0 0 0-1.03-1.03Zm.29 3.415a.29.29 0 0 1-.29.289H17.1c-.602 0-1.119.345-1.349.9-.23.556-.11 1.165.316 1.59l1.323 1.323a.29.29 0 0 1 0 .41l-1.686 1.685a.29.29 0 0 1-.409 0l-1.322-1.323a1.438 1.438 0 0 0-1.59-.316c-.556.23-.901.747-.901 1.348v1.871a.29.29 0 0 1-.29.29H8.808a.29.29 0 0 1-.288-.29V17.1c0-.602-.346-1.119-.901-1.349a1.44 1.44 0 0 0-1.59.316L4.704 17.39a.289.289 0 0 1-.41 0L2.61 15.704a.29.29 0 0 1 0-.41l1.323-1.322a1.436 1.436 0 0 0 .316-1.59c-.23-.555-.747-.9-1.348-.9H1.03a.29.29 0 0 1-.29-.29V8.808c0-.159.13-.288.29-.288H2.9c.602 0 1.119-.346 1.349-.901.23-.556.11-1.165-.316-1.59L2.61 4.704a.289.289 0 0 1 0-.41L4.296 2.61a.289.289 0 0 1 .409 0l1.322 1.322a1.437 1.437 0 0 0 1.59.317c.556-.23.902-.747.902-1.348V1.03c0-.16.13-.29.288-.29h2.385c.16 0 .29.13.29.29V2.9c0 .602.345 1.119.9 1.349.556.23 1.165.109 1.59-.316l1.323-1.323a.29.29 0 0 1 .41 0l1.685 1.686a.29.29 0 0 1 0 .41l-1.323 1.322a1.437 1.437 0 0 0-.316 1.59c.23.556.747.9 1.348.9h1.871c.16 0 .29.13.29.29v2.385Z" fill="#fff"/><path d="M10 6.667A3.337 3.337 0 0 0 6.667 10 3.337 3.337 0 0 0 10 13.333 3.337 3.337 0 0 0 13.333 10 3.337 3.337 0 0 0 10 6.667Zm0 5.926A2.596 2.596 0 0 1 7.407 10 2.596 2.596 0 0 1 10 7.407 2.596 2.596 0 0 1 12.592 10 2.596 2.596 0 0 1 10 12.593Z" fill="#fff"/></svg>