<svg width="20" height="20" fill="none" xmlns="http://www.w3.org/2000/svg"><path d="M10 0C4.486 0 0 4.486 0 10s4.486 10 10 10 10-4.486 10-10S15.514 0 10 0Zm0 18.919a8.89 8.89 0 0 1-6.285-2.597 8.968 8.968 0 0 1-1.618-2.191A8.863 8.863 0 0 1 1.081 10c0-4.918 4.001-8.919 8.919-8.919 2.333 0 4.459.9 6.05 2.372a8.967 8.967 0 0 1 1.997 2.702A8.865 8.865 0 0 1 18.919 10c0 4.918-4.001 8.919-8.919 8.919Z" fill="#4353FF"/><path d="M6.734 8.851a1.081 1.081 0 1 0 0-2.162 1.081 1.081 0 0 0 0 2.162ZM13.423 8.851a1.081 1.081 0 1 0 0-2.162 1.081 1.081 0 0 0 0 2.162ZM9.981 15.54a6.276 6.276 0 0 0 5.244-2.845l-.908-.587a5.18 5.18 0 0 1-4.912 2.318 5.186 5.186 0 0 1-3.721-2.318l-.908.587A6.278 6.278 0 0 0 9.28 15.5a6.1 6.1 0 0 0 .7.04Z" fill="#4353FF"/></svg>