<svg width="28" height="21" fill="none" xmlns="http://www.w3.org/2000/svg"><ellipse cx="10.63" cy="10.5" rx="2.889" ry="2.85" fill="#4353FF"/><path d="m26.638 1.092-.01-.004-.011-.004a1.49 1.49 0 0 0-.546-.11c-.395 0-.744.15-1.014.437L20.07 6.5V5.275c0-1.307-.459-2.44-1.368-3.37C17.793.975 16.68.5 15.393.5H5.178c-1.287 0-2.4.474-3.31 1.405C.96 2.835.5 3.968.5 5.275v10.45c0 1.307.46 2.44 1.368 3.37.91.93 2.023 1.405 3.31 1.405h10.215c1.288 0 2.4-.474 3.31-1.405.91-.93 1.368-2.063 1.368-3.37v-1.237l4.986 5.1c.27.288.619.437 1.014.437.188 0 .371-.04.546-.108l.01-.005.01-.004c.261-.116.485-.29.642-.53.156-.242.221-.518.221-.803V2.425c0-.285-.066-.56-.222-.802a1.444 1.444 0 0 0-.64-.53Z" stroke="#4353FF"/></svg>